<?xml version="1.0" encoding="UTF-8" standalone="no"?>
<!-- Created with Inkscape (http://www.inkscape.org/) -->

<svg
   version="1.1"
   id="svg2"
   xml:space="preserve"
   width="730"
   height="730"
   viewBox="383 383 730 730"
   sodipodi:docname="2397af9e1b5fc6ccb32b5ee04c1f370d.eps"
   xmlns:inkscape="http://www.inkscape.org/namespaces/inkscape"
   xmlns:sodipodi="http://sodipodi.sourceforge.net/DTD/sodipodi-0.dtd"
   xmlns="http://www.w3.org/2000/svg"
   xmlns:svg="http://www.w3.org/2000/svg"><defs
     id="defs6"><clipPath
       clipPathUnits="userSpaceOnUse"
       id="clipPath26"><path
         d="m 2875,5610 c 0,1510.5 1224.5,2735 2735,2735 1510.5,0 2735,-1224.5 2735,-2735 0,-1510.5 -1224.5,-2735 -2735,-2735 -1510.5,0 -2735,1224.5 -2735,2735 z"
         id="path24" /></clipPath></defs><sodipodi:namedview
     id="namedview4"
     pagecolor="#ffffff"
     bordercolor="#666666"
     borderopacity="1.0"
     inkscape:pageshadow="2"
     inkscape:pageopacity="0.0"
     inkscape:pagecheckerboard="0" /><g
     id="g8"
     inkscape:groupmode="layer"
     inkscape:label="ink_ext_XXXXXX"
     transform="matrix(1.3333333,0,0,-1.3333333,0,1496)"><g
       id="g10"
       transform="scale(0.1)"><path
         d="m 2875,5610 c 0,1510.5 1224.5,2735 2735,2735 1510.5,0 2735,-1224.5 2735,-2735 0,-1510.5 -1224.5,-2735 -2735,-2735 -1510.5,0 -2735,1224.5 -2735,2735"
         style="fill:#e0d83a;fill-opacity:1;fill-rule:nonzero;stroke:none"
         id="path14" /><path
         d="m 7040.92,7942.91 c 272.36,-425.21 430.29,-930.76 430.29,-1473.2 0,-1510.5 -1224.5,-2735 -2735,-2735 -524.6,0 -1014.63,147.81 -1430.92,403.9 486.07,-758.85 1336.65,-1261.8 2304.71,-1261.8 1510.5,0 2735,1224.5 2735,2735 0,985.89 -521.73,1849.84 -1304.08,2331.1"
         style="fill:#d5ca3c;fill-opacity:1;fill-rule:nonzero;stroke:none"
         id="path16" /><path
         d="m 3246.72,5367.7 c 0,1402.4 1136.88,2539.27 2539.29,2539.27 819.72,0 1548.58,-388.53 2012.86,-991.36 C 7360.4,7676.82 6538.55,8189.29 5597,8189.29 c -1402.41,0 -2539.28,-1136.87 -2539.28,-2539.28 0,-582.68 196.39,-1119.41 526.41,-1547.92 -214.61,372.59 -337.41,804.75 -337.41,1265.61"
         style="fill:#ece160;fill-opacity:1;fill-rule:nonzero;stroke:none"
         id="path18" /><g
         id="g20"><g
           id="g22"
           clip-path="url(#clipPath26)"><path
             d="m 3653.11,3464.91 -172.71,186.52 c 221,204.64 403.98,444.19 543.87,712 276.69,529.68 361.96,1148.34 240.07,1742.03 -114.86,559.45 -425.6,1077.78 -874.96,1459.51 l 164.56,193.72 c 492.45,-418.31 833.17,-987.29 959.39,-1602.11 133.63,-650.84 39.96,-1329.46 -263.75,-1910.84 -153.4,-293.67 -354.08,-556.38 -596.47,-780.83"
             style="fill:#ffffff;fill-opacity:1;fill-rule:nonzero;stroke:none"
             id="path28" /><path
             d="m 7749.6,3464.91 c -242.37,224.45 -443.05,487.15 -596.46,780.83 -303.71,581.4 -397.37,1260.01 -263.76,1910.83 126.23,614.83 466.95,1183.81 959.39,1602.12 l 164.57,-193.72 c -449.37,-381.73 -760.1,-900.06 -874.97,-1459.52 -121.87,-593.68 -36.62,-1212.33 240.07,-1742.02 139.91,-267.83 322.9,-507.38 543.87,-712 L 7749.6,3464.91"
             style="fill:#ffffff;fill-opacity:1;fill-rule:nonzero;stroke:none"
             id="path30" /></g></g><path
         d="m 3735.86,3923.97 c -44.83,-55.28 -91.89,-108.77 -141.19,-160.32 57.31,-62.48 117.47,-122.27 180.31,-179.19 77.05,80.29 149.23,164.79 216.31,253.26 -87,24.6 -172.18,53.49 -255.43,86.25"
         style="fill:#f0f0ef;fill-opacity:1;fill-rule:nonzero;stroke:none"
         id="path32" /><path
         d="m 7715.79,3866.17 c -130.55,151.81 -243.46,318.18 -337.02,497.26 -125.84,240.91 -211.93,500.25 -257.1,767.25 -58.61,-104.17 -123.7,-204.19 -194.99,-299.33 53.64,-202.45 129.34,-399.05 226.79,-585.61 107.41,-205.62 238.08,-395.98 389.92,-568.74 60.36,60.31 117.86,123.47 172.4,189.17"
         style="fill:#f0f0ef;fill-opacity:1;fill-rule:nonzero;stroke:none"
         id="path34" /></g></g></svg>
